<?xml version="1.0" standalone="no"?>
<!DOCTYPE svg PUBLIC "-//W3C//DTD SVG 20010904//EN" "http://www.w3.org/TR/2001/REC-SVG-20010904/DTD/svg10.dtd">
<!-- Created using Karbon, part of Calligra: http://www.calligra.org/karbon -->
<svg xmlns="http://www.w3.org/2000/svg" xmlns:xlink="http://www.w3.org/1999/xlink" width="25.6pt" height="25.6pt">
<defs/>
<g id="Layer">
  <path id="Shape" transform="" fill="#000000" d="M2.28571 4.57143L29.7143 4.57143C30.976 4.57143 32 3.54743 32 2.28571C32 1.024 30.976 0 29.7143 0L2.28571 0C1.024 0 0 1.024 0 2.28571C0 3.54743 1.024 4.57143 2.28571 4.57143ZM29.7143 9.14286L2.28571 9.14286C1.024 9.14286 0 10.1669 0 11.4286C0 12.6903 1.024 13.7143 2.28571 13.7143L29.7143 13.7143C30.976 13.7143 32 12.6903 32 11.4286C32 10.1669 30.976 9.14286 29.7143 9.14286ZM29.7143 18.2857L2.28571 18.2857C1.024 18.2857 0 19.3097 0 20.5714C0 21.8331 1.024 22.8571 2.28571 22.8571L29.7143 22.8571C30.976 22.8571 32 21.8331 32 20.5714C32 19.3097 30.976 18.2857 29.7143 18.2857Z"/>
 </g>
</svg>
